REM DIRINDEX 1\2,1\3,1\4
REM DIRNAME folder01,folder02,folder03,folder04
TITLE ""
FILE "118 118_TOEFL_3900.mp3" MP3
  TRACK 01 AUDIO
    TITLE "2:cjc151_5116"
    INDEX 01 00:00:00
  TRACK 02 AUDIO
    TITLE "0:"
    INDEX 01 00:01:32
  TRACK 03 AUDIO
    TITLE "3:cjc151_5117"
    INDEX 01 00:03:08
  TRACK 04 AUDIO
    TITLE "0:"
    INDEX 01 00:06:57
  TRACK 05 AUDIO
    TITLE "2:cjc151_5118"
    INDEX 01 00:08:44
  TRACK 06 AUDIO
    TITLE "0:"
    INDEX 01 00:11:03
  TRACK 07 AUDIO
    TITLE "3:cjc151_5119"
    INDEX 01 00:12:56
  TRACK 08 AUDIO
    TITLE "0:"
    INDEX 01 00:16:40
  TRACK 09 AUDIO
    TITLE "2:cjc151_5120"
    INDEX 01 00:18:19
  TRACK 10 AUDIO
    TITLE "0:"
    INDEX 01 00:19:32
  TRACK 11 AUDIO
    TITLE "3:cjc151_5121"
    INDEX 01 00:21:13
  TRACK 12 AUDIO
    TITLE "0:"
    INDEX 01 00:24:37
  TRACK 13 AUDIO
    TITLE "2:cjc151_5122"
    INDEX 01 00:26:15
  TRACK 14 AUDIO
    TITLE "0:"
    INDEX 01 00:27:30
  TRACK 15 AUDIO
    TITLE "3:cjc151_5123"
    INDEX 01 00:29:09
  TRACK 16 AUDIO
    TITLE "0:"
    INDEX 01 00:32:54
  TRACK 17 AUDIO
    TITLE "2:cjc151_5124"
    INDEX 01 00:34:34
  TRACK 18 AUDIO
    TITLE "0:"
    INDEX 01 00:37:44
  TRACK 19 AUDIO
    TITLE "3:cjc151_5125"
    INDEX 01 00:39:23
  TRACK 20 AUDIO
    TITLE "0:"
    INDEX 01 00:43:56
  TRACK 21 AUDIO
    TITLE "2:cjc151_5126"
    INDEX 01 00:45:35
  TRACK 22 AUDIO
    TITLE "0:"
    INDEX 01 00:46:29
  TRACK 23 AUDIO
    TITLE "3:cjc151_5127"
    INDEX 01 00:48:08
  TRACK 24 AUDIO
    TITLE "0:"
    INDEX 01 00:51:36
  TRACK 25 AUDIO
    TITLE "2:cjc151_5128"
    INDEX 01 00:53:23
  TRACK 26 AUDIO
    TITLE "0:"
    INDEX 01 00:54:40
  TRACK 27 AUDIO
    TITLE "3:cjc151_5129"
    INDEX 01 00:56:20
  TRACK 28 AUDIO
    TITLE "0:"
    INDEX 01 00:59:43
  TRACK 29 AUDIO
    TITLE "2:cjc151_5130"
    INDEX 01 01:01:21
  TRACK 30 AUDIO
    TITLE "0:"
    INDEX 01 01:02:20
  TRACK 31 AUDIO
    TITLE "3:cjc151_5131"
    INDEX 01 01:04:00
  TRACK 32 AUDIO
    TITLE "0:"
    INDEX 01 01:08:68
  TRACK 33 AUDIO
    TITLE "2:cjc151_5132"
    INDEX 01 01:10:45
  TRACK 34 AUDIO
    TITLE "0:"
    INDEX 01 01:11:64
  TRACK 35 AUDIO
    TITLE "3:cjc151_5133"
    INDEX 01 01:13:44
  TRACK 36 AUDIO
    TITLE "0:"
    INDEX 01 01:17:04
  TRACK 37 AUDIO
    TITLE "2:cjc151_5134"
    INDEX 01 01:18:58
  TRACK 38 AUDIO
    TITLE "0:"
    INDEX 01 01:19:66
  TRACK 39 AUDIO
    TITLE "3:cjc151_5135"
    INDEX 01 01:21:43
  TRACK 40 AUDIO
    TITLE "0:"
    INDEX 01 01:24:73
  TRACK 41 AUDIO
    TITLE "2:cjc151_5136"
    INDEX 01 01:26:52
  TRACK 42 AUDIO
    TITLE "0:"
    INDEX 01 01:27:59
  TRACK 43 AUDIO
    TITLE "3:cjc151_5137"
    INDEX 01 01:29:37
  TRACK 44 AUDIO
    TITLE "0:"
    INDEX 01 01:33:54
  TRACK 45 AUDIO
    TITLE "2:cjc151_5138"
    INDEX 01 01:35:33
  TRACK 46 AUDIO
    TITLE "0:"
    INDEX 01 01:36:31
  TRACK 47 AUDIO
    TITLE "3:cjc151_5139"
    INDEX 01 01:38:10
  TRACK 48 AUDIO
    TITLE "0:"
    INDEX 01 01:41:24
  TRACK 49 AUDIO
    TITLE "2:cjc151_5140"
    INDEX 01 01:43:03
  TRACK 50 AUDIO
    TITLE "0:"
    INDEX 01 01:43:72
  TRACK 51 AUDIO
    TITLE "3:cjc151_5141"
    INDEX 01 01:45:61
  TRACK 52 AUDIO
    TITLE "0:"
    INDEX 01 01:49:02
  TRACK 53 AUDIO
    TITLE "2:cjc151_5142"
    INDEX 01 01:50:56
  TRACK 54 AUDIO
    TITLE "0:"
    INDEX 01 01:51:58
  TRACK 55 AUDIO
    TITLE "3:cjc151_5143"
    INDEX 01 01:53:35
  TRACK 56 AUDIO
    TITLE "0:"
    INDEX 01 01:58:13
  TRACK 57 AUDIO
    TITLE "2:cjc151_5144"
    INDEX 01 01:59:65
  TRACK 58 AUDIO
    TITLE "0:"
    INDEX 01 02:01:05
  TRACK 59 AUDIO
    TITLE "3:cjc151_5145"
    INDEX 01 02:02:56
  TRACK 60 AUDIO
    TITLE "0:"
    INDEX 01 02:06:06
  TRACK 61 AUDIO
    TITLE "2:cjc151_5146"
    INDEX 01 02:07:61
  TRACK 62 AUDIO
    TITLE "0:"
    INDEX 01 02:08:74
  TRACK 63 AUDIO
    TITLE "3:cjc151_5147"
    INDEX 01 02:10:53
  TRACK 64 AUDIO
    TITLE "0:"
    INDEX 01 02:13:63
  TRACK 65 AUDIO
    TITLE "2:cjc151_5148"
    INDEX 01 02:15:41
  TRACK 66 AUDIO
    TITLE "0:"
    INDEX 01 02:16:38
  TRACK 67 AUDIO
    TITLE "3:cjc151_5149"
    INDEX 01 02:18:18
  TRACK 68 AUDIO
    TITLE "0:"
    INDEX 01 02:22:13
  TRACK 69 AUDIO
    TITLE "2:cjc151_5150"
    INDEX 01 02:23:66
  TRACK 70 AUDIO
    TITLE "0:"
    INDEX 01 02:24:73
  TRACK 71 AUDIO
    TITLE "3:cjc151_5151"
    INDEX 01 02:26:48
  TRACK 72 AUDIO
    TITLE "0:"
    INDEX 01 02:30:54
  TRACK 73 AUDIO
    TITLE "2:cjc151_5152"
    INDEX 01 02:32:33
  TRACK 74 AUDIO
    TITLE "0:"
    INDEX 01 02:33:39
  TRACK 75 AUDIO
    TITLE "3:cjc151_5153"
    INDEX 01 02:35:16
  TRACK 76 AUDIO
    TITLE "0:"
    INDEX 01 02:38:73
  TRACK 77 AUDIO
    TITLE "2:cjc151_5154"
    INDEX 01 02:40:52
  TRACK 78 AUDIO
    TITLE "0:"
    INDEX 01 02:41:42
  TRACK 79 AUDIO
    TITLE "3:cjc151_5155"
    INDEX 01 02:43:21
  TRACK 80 AUDIO
    TITLE "0:"
    INDEX 01 02:46:22
  TRACK 81 AUDIO
    TITLE "2:cjc151_5156"
    INDEX 01 02:48:01
  TRACK 82 AUDIO
    TITLE "0:"
    INDEX 01 02:49:18
  TRACK 83 AUDIO
    TITLE "3:cjc151_5157"
    INDEX 01 02:50:72
  TRACK 84 AUDIO
    TITLE "0:"
    INDEX 01 02:54:62
  TRACK 85 AUDIO
    TITLE "2:cjc151_5158"
    INDEX 01 02:56:44
  TRACK 86 AUDIO
    TITLE "0:"
    INDEX 01 02:57:51
  TRACK 87 AUDIO
    TITLE "3:cjc151_5159"
    INDEX 01 02:59:28
  TRACK 88 AUDIO
    TITLE "0:"
    INDEX 01 03:02:36
